<?xml version="1.0" encoding="UTF-8"?>
<!DOCTYPE svg PUBLIC "-//W3C//DTD SVG 1.1//EN" "http://www.w3.org/Graphics/SVG/1.1/DTD/svg11.dtd">
<!-- Creator: CorelDRAW X7 -->
<svg xmlns="http://www.w3.org/2000/svg" xml:space="preserve" width="320px" height="160px" version="1.1" style="shape-rendering:geometricPrecision; text-rendering:geometricPrecision; image-rendering:optimizeQuality; fill-rule:evenodd; clip-rule:evenodd"
viewBox="0 0 320 160"
 xmlns:xlink="http://www.w3.org/1999/xlink">
 <defs>
  <style type="text/css">
   <![CDATA[
    .fil11 {fill:#00933F}
    .fil9 {fill:#09823B}
    .fil8 {fill:#0B833C}
    .fil4 {fill:#0D843E}
    .fil15 {fill:#0E853F}
    .fil3 {fill:#108641}
    .fil2 {fill:#118742}
    .fil5 {fill:#128743}
    .fil16 {fill:#138844}
    .fil6 {fill:#168945}
    .fil14 {fill:#35995F}
    .fil1 {fill:#55AB7A}
    .fil19 {fill:#5EAD7F}
    .fil20 {fill:#61B183}
    .fil18 {fill:#69B589}
    .fil17 {fill:#6BB68B}
    .fil13 {fill:#6EB895}
    .fil0 {fill:#B0DAC3}
    .fil7 {fill:#B3DCC6}
    .fil10 {fill:#B5DDC7}
    .fil12 {fill:#FEFFFF}
   ]]>
  </style>
 </defs>
 <g id="Layer_x0020_1">
  <metadata id="CorelCorpID_0Corel-Layer"/>
  <g id="_1479883960784">
   <g>
    <path class="fil0" d="M201 104l2 0 -1 -3c0,0 0,0 0,0l-1 3z"/>
    <polygon class="fil0" points="159,104 161,104 160,100 "/>
   </g>
   <g>
    <path class="fil1" d="M230 69c1,0 1,0 1,-2l0 -8c-1,0 -1,0 -2,0 0,0 -1,0 -1,0 -1,1 0,0 -1,1l3 0 0 9z"/>
    <polygon class="fil1" points="176,101 177,101 176,100 "/>
   </g>
   <g>
    <path class="fil2" d="M123 107c1,-1 2,-6 1,-8 -1,1 1,9 -2,7 -1,0 -1,0 -1,-1 0,-2 0,-5 0,-6 -1,0 -1,0 -1,1 0,0 0,1 0,1 0,5 0,7 3,6z"/>
    <path class="fil2" d="M156 100l0 7 1 0 0 -7c2,0 1,0 1,-1l-4 0 0 1c2,0 1,0 2,0z"/>
   </g>
   <g>
    <path class="fil3" d="M202 101c0,0 0,0 0,0l1 3 -2 0 1 -3zm-2 6c1,-1 0,-1 1,-2l2 0c0,1 0,2 1,2l-2 -7c0,-2 0,-1 0,-1 -1,1 -3,7 -2,8z"/>
    <path class="fil3" d="M171 100l2 0c1,2 1,1 0,3l-2 0 0 -3zm-1 7l1 0 0 -3c2,0 3,0 3,-3 0,-3 -2,-2 -4,-2l0 8z"/>
   </g>
   <g>
    <path class="fil4" d="M151 106c-2,0 -2,0 -3,-2 -1,1 -1,-1 0,1 0,1 0,2 0,2 0,0 1,0 2,0 2,-1 1,-3 1,-4 -1,-1 -2,-1 -3,-2l0 -1c3,0 2,0 3,1 0,-3 -2,-3 -3,-1 0,0 0,1 0,2 1,2 3,1 3,4z"/>
    <path class="fil4" d="M182 104l0 2c0,0 -1,0 -1,0 -1,-1 -1,0 -1,-1l-1 0c0,0 0,-1 0,-1 1,5 4,4 4,1 1,-4 -3,-1 -3,-5 2,-1 2,0 3,1 0,-2 -1,-3 -3,-2 -3,4 1,4 2,5z"/>
    <path class="fil4" d="M176 101l0 -1 1 1 0 3 -2 0 1 -3zm-2 6l1 -2 2 0 1 2c0,0 1,0 0,-2 0,-1 0,-1 0,-2 -1,-2 -1,-3 -2,-4 0,0 0,0 -1,2 0,0 0,1 0,2 0,0 0,1 -1,2 0,2 0,1 0,2z"/>
   </g>
   <g>
    <path class="fil5" d="M138 107l3 0c0,-2 -1,-1 -3,-1l0 -3 3 0c0,-1 -1,-1 -3,-1l0 -2c2,0 3,0 3,-1 -1,0 -2,0 -3,0l0 8z"/>
    <path class="fil5" d="M187 107c2,-1 1,-5 1,-8 -1,0 0,-1 0,4 -1,2 -1,3 -3,3 0,-2 0,-5 0,-7 -1,0 -1,0 -1,2 0,3 0,6 3,6z"/>
    <path class="fil5" d="M135 107l0 -2c1,-1 2,-5 2,-6 -2,1 -1,4 -2,6l-1 0c0,-2 0,-5 -1,-6 -1,1 0,2 0,4 1,2 1,3 2,4z"/>
   </g>
   <g>
    <path class="fil6" d="M125 107l1 -5c2,1 1,5 4,5l-1 -8c-1,1 0,3 0,6l-2 -5c-1,-1 0,-1 -2,-1l0 8z"/>
    <path class="fil6" d="M205 107l1 -6c1,2 1,3 2,5 0,1 0,1 1,1l0 -7c0,-1 0,-1 -1,-1 0,1 0,3 0,6l-2 -5c-1,-2 0,-1 -1,-1l0 8z"/>
   </g>
   <g>
    <path class="fil7" d="M198 106c0,-1 0,-3 0,-4 0,-2 -1,-2 -3,-2l1 6 2 0z"/>
    <polygon class="fil7" points="177,101 176,101 175,104 177,104 "/>
   </g>
   <g>
    <path class="fil8" d="M230 69l0 -9 -3 0 -1 5 -2 -6 -4 0 0 10 3 0 0 -6 1 6 3 0c0,-1 0,-4 1,-5l0 5 2 0z"/>
    <path class="fil8" d="M210 69l2 0c0,-3 0,-2 2,-4 1,1 2,3 3,4l2 0 -4 -6c1,-1 4,-3 4,-3 -2,-1 -2,-1 -4,0 -1,2 -1,3 -3,3l0 -4 -2 1 0 9z"/>
    <path class="fil8" d="M198 106l-2 0 -1 -6c2,0 3,0 3,2 0,1 0,3 0,4zm-3 1c3,0 4,0 4,-4 0,-4 -1,-4 -4,-4l0 8z"/>
    <path class="fil8" d="M166 104l0 2c0,0 -1,1 -2,-1 -1,-1 1,1 0,0 0,0 0,0 0,0 0,0 -1,0 -1,-1 0,1 0,0 0,2 1,3 5,1 4,-2 0,-1 -1,-1 -2,-2 -3,-1 0,-3 1,-2l1 1c-1,-4 -3,-2 -4,-1 0,3 2,3 3,4z"/>
   </g>
   <g>
    <path class="fil9" d="M191 78c5,-3 6,10 2,12 -5,3 -6,-10 -2,-12zm-6 16l3 0 0 -2c2,1 4,5 8,2 2,-2 3,-6 3,-9 1,-5 -1,-12 -6,-12 -3,1 -3,2 -4,3l0 -10 -4 0 0 28z"/>
    <path class="fil9" d="M241 78c5,-3 6,10 2,12 -4,2 -5,-5 -4,-9 0,-2 1,-2 2,-3zm-6 16l3 0 0 -2c6,7 11,1 11,-7 1,-5 -1,-12 -6,-12 -2,1 -3,2 -4,3l0 -10 -4 0 0 28z"/>
    <path class="fil9" d="M169 85c0,1 0,3 -1,4 -1,2 -3,3 -4,1 -3,-4 3,-5 5,-5zm-9 -6l3 1c1,-1 1,-3 4,-3 2,1 2,2 2,4 -4,2 -10,1 -9,8 0,6 6,7 9,3l1 2 4 0c-3,-9 3,-23 -9,-21 -3,1 -4,3 -5,6z"/>
    <path class="fil9" d="M223 91c-4,-4 1,-5 4,-6 1,3 0,6 -4,6zm-5 -12l3 1c0,0 1,0 1,0 0,0 0,-2 1,-2 1,-1 3,0 3,0l1 3c-5,2 -9,2 -9,8 0,6 6,8 9,3l1 1c0,1 -1,1 4,1 -1,-4 -1,-16 -2,-18 -2,-4 -11,-4 -12,3z"/>
    <path class="fil9" d="M211 85c0,1 0,3 -1,5 -3,3 -6,-2 -4,-4 1,-1 4,-1 5,-1zm-9 -6l3 1c1,-2 1,-3 3,-3 3,1 3,2 3,4 -5,1 -10,2 -9,8 0,3 1,5 3,5 3,1 5,-1 6,-2 1,2 0,2 5,2 -2,-5 0,-15 -2,-18 -2,-4 -12,-4 -12,3z"/>
    <path class="fil9" d="M136 92l1 1c0,0 0,0 0,1l3 0 0 -20 -4 0 0 8c0,4 1,9 -4,8 -2,-2 -1,-12 -1,-16l-4 0c0,4 -1,12 0,16 1,6 8,6 9,2z"/>
    <path class="fil9" d="M101 86c0,3 0,6 2,8 3,2 6,0 7,-2 1,0 1,0 1,1 0,0 0,1 0,1l4 0 0 -20 -4 0 0 8c0,4 0,9 -5,8 -2,-1 -1,-13 -1,-16l-4 0 0 12z"/>
    <polygon class="fil9" points="119,94 123,94 123,66 119,66 "/>
    <polygon class="fil9" points="144,94 145,94 148,94 148,66 145,66 "/>
    <polygon class="fil9" points="177,94 180,94 180,66 177,66 "/>
    <path class="fil9" d="M202 61c1,0 2,1 3,1 1,4 1,6 -3,5l0 -6zm-2 8c3,0 6,0 8,-2 1,-3 0,-7 -3,-7l-5 0 -1 0 1 9z"/>
    <path class="fil9" d="M190 107l0 -6c1,1 1,2 1,3 2,3 1,3 2,3l0 -8c0,0 0,0 0,1l0 5 -2 -5c-1,-1 0,-1 -2,-1l0 6c0,3 0,1 1,2z"/>
    <path class="fil9" d="M145 102l-1 1c-1,0 0,0 -1,-1l0 -2c1,-1 1,-1 2,0 0,0 1,0 1,1 0,1 -1,1 -1,1zm-3 5c1,-1 1,1 1,-3 1,-1 2,0 2,1 0,0 0,1 1,1 0,1 0,1 1,1l-2 -3c2,-2 2,-2 1,-5l-4 0 0 8z"/>
    <path class="fil9" d="M153 107l0 -8c-1,0 0,-1 0,4 0,6 -1,3 0,4z"/>
   </g>
   <g>
    <path class="fil10" d="M153 107c-1,-1 0,2 0,-4 0,-5 -1,-4 0,-4l0 8zm-22 0c0,-2 -1,-7 0,-8 1,2 1,6 1,8l-1 0zm-11 -6c0,0 0,-1 0,-1 0,-1 0,-1 1,-1 0,1 0,4 0,6 0,1 0,1 1,1 3,2 1,-6 2,-7 1,2 0,7 -1,8 -3,1 -3,-1 -3,-6zm67 6c-3,0 -3,-3 -3,-6 0,-2 0,-2 1,-2 0,2 0,5 0,7 2,0 2,-1 3,-3 0,-5 -1,-4 0,-4 0,3 1,7 -1,8zm8 -8c3,0 4,0 4,4 0,4 -1,4 -4,4l0 -8zm5 8c-1,-1 1,-7 2,-8 0,0 0,-1 0,1l2 7c-1,0 -1,-1 -1,-2l-2 0c-1,1 0,1 -1,2zm-26 0c0,-1 0,0 0,-2 1,-1 1,-2 1,-2 0,-1 0,-2 0,-2 1,-2 1,-2 1,-2 1,1 1,2 2,4 0,1 0,1 0,2 1,2 0,2 0,2l-1 -2 -2 0 -1 2zm-16 0c0,0 0,0 0,-2l2 -6c1,0 1,0 1,2l2 6c-1,0 -1,0 -2,-2l-2 0 -1 2zm12 -8c2,0 4,-1 4,2 0,3 -1,3 -3,3l0 3 -1 0 0 -8zm-28 0l4 0c1,3 1,3 -1,5l2 3c-1,0 -1,0 -1,-1 -1,0 -1,-1 -1,-1 0,-1 -1,-2 -2,-1 0,4 0,2 -1,3l0 -8zm-17 0c2,0 1,0 2,1l2 5c0,-3 -1,-5 0,-6l1 8c-3,0 -2,-4 -4,-5l-1 5 0 -8zm80 0c1,0 0,-1 1,1l2 5c0,-3 0,-5 0,-6 1,0 1,0 1,1l0 7c-1,0 -1,0 -1,-1 -1,-2 -1,-3 -2,-5l-1 6 0 -8zm-15 8c-1,-1 -1,1 -1,-2l0 -6c2,0 1,0 2,1l2 5 0 -5c0,-1 0,-1 0,-1l0 8c-1,0 0,0 -2,-3 0,-1 0,-2 -1,-3l0 6zm-36 -8l4 0c0,1 1,1 -1,1l0 7 -1 0 0 -7 -2 0c0,-2 0,-1 0,-1zm-16 0c1,0 2,0 3,0 0,1 -1,1 -3,1l0 2c2,0 3,0 3,1l-3 0 0 3c2,0 3,-1 3,1l-3 0 0 -8zm-3 6l0 2c-1,-1 -1,-2 -2,-4 0,-2 -1,-3 0,-4 1,1 1,4 1,6l1 0c1,-2 0,-5 2,-6 0,1 -1,5 -2,6zm47 -1c-1,-1 -5,-1 -2,-5 2,-1 3,0 3,2 -1,-1 -1,-2 -3,-1 0,4 4,1 3,5 0,3 -3,4 -4,-1 0,0 0,1 0,1l1 0c0,1 0,0 1,1 0,0 1,0 1,0l0 -2zm-16 0c-1,-1 -3,-1 -3,-4 1,-1 3,-3 4,1l-1 -1c-1,-1 -4,1 -1,2 1,1 2,1 2,2 1,3 -3,5 -4,2 0,-2 0,-1 0,-2 0,1 1,1 1,1 0,0 0,0 0,0 1,1 -1,-1 0,0 1,2 2,1 2,1l0 -2zm-15 2c0,-3 -2,-2 -3,-4 0,-1 0,-2 0,-2 1,-2 3,-2 3,1 -1,-1 0,-1 -3,-1l0 1c1,1 2,1 3,2 0,1 1,3 -1,4 -1,0 -2,0 -2,0 0,0 0,-1 0,-2 -1,-2 -1,0 0,-1 1,2 1,2 3,2zm29 -12l-3 0 0 -1c0,-1 0,-2 0,-2 0,-6 -1,-22 0,-25l4 0c0,1 0,27 -1,28zm-35 -28l3 0 0 28 -3 0 -1 0 1 -28zm-26 0l4 0 0 28 -4 0 0 -28zm17 26c-1,4 -8,4 -9,-2 -1,-4 0,-12 0,-16l4 0c0,4 -1,14 1,16 5,1 4,-4 4,-8l0 -8 4 0 0 20 -3 0c0,-1 0,-1 0,-1l-1 -1zm-35 -18l4 0c0,3 -1,15 1,16 5,1 5,-4 5,-8l0 -8 4 0 0 20 -4 0c0,0 0,-1 0,-1 0,-1 0,-1 -1,-1 -1,2 -4,4 -7,2 -2,-2 -2,-5 -2,-8l0 -12zm134 -8l4 0 0 10c1,-1 2,-2 4,-3 5,0 7,7 6,12 0,8 -5,14 -11,7l0 2 -3 0 0 -28zm-50 0l4 0 0 10c1,-1 1,-2 4,-3 5,0 7,7 6,12 0,3 -1,7 -3,9 -4,3 -6,-1 -8,-2l0 2 -3 0 0 -28zm33 13c1,-7 10,-7 12,-3 1,2 1,14 2,18 -5,0 -4,0 -4,-1l-1 -1c-3,5 -9,3 -9,-3 0,-6 4,-6 9,-8l-1 -3c0,0 -2,-1 -3,0 -1,0 -1,2 -1,2 0,0 -1,0 -1,0l-3 -1zm-16 0c0,-7 10,-7 12,-3 2,3 0,13 2,18 -5,0 -4,0 -5,-2 -1,1 -3,3 -6,2 -2,0 -3,-2 -3,-5 -1,-6 4,-7 9,-8 0,-2 0,-3 -3,-4 -2,0 -2,1 -3,3l-3 -1zm-42 0c1,-3 2,-5 5,-6 12,-2 6,12 9,21l-4 0 -1 -2c-3,4 -9,3 -9,-3 -1,-7 5,-6 9,-8 0,-2 0,-3 -2,-4 -3,0 -3,2 -4,3l-3 -1zm40 -10c-1,0 -1,1 -1,-1l0 -9 6 1c0,-1 0,0 0,0 3,0 4,4 3,7 -2,2 -5,2 -8,2zm27 -9c1,-1 0,0 1,-1 0,0 1,0 1,0 1,0 1,0 2,0l0 8c0,2 0,2 -1,2l-2 0 0 -5c-1,1 -1,4 -1,5l-3 0 -1 -6 0 6 -3 0 0 -10 4 0 2 6 1 -5zm-17 0l2 -1 0 4c2,0 2,-1 3,-3 2,-1 2,-1 4,0 0,0 -3,2 -4,3l4 6 -2 0c-1,-1 -2,-3 -3,-4 -2,2 -2,1 -2,4l-2 0 0 -9zm81 29l-8 4c0,-2 2,-9 1,-10l-7 -6c0,-1 0,0 1,-1l4 0c2,0 4,0 5,-1l3 -5c-4,-5 -16,-10 -24,-12 -44,-14 -117,-14 -162,-5 -14,4 -46,12 -45,27 1,14 31,22 46,26 46,9 117,9 162,-5 8,-3 20,-8 24,-12z"/>
    <path class="fil10" d="M241 78c-1,1 -2,1 -2,3 -1,4 0,11 4,9 4,-2 3,-15 -2,-12z"/>
    <path class="fil10" d="M191 78c-4,2 -3,15 2,12 4,-2 3,-15 -2,-12z"/>
    <path class="fil10" d="M211 85c-1,0 -4,0 -5,1 -2,2 1,7 4,4 1,-2 1,-4 1,-5z"/>
    <path class="fil10" d="M169 85c-2,0 -8,1 -5,5 1,2 3,1 4,-1 1,-1 1,-3 1,-4z"/>
    <path class="fil10" d="M223 91c4,0 5,-3 4,-6 -3,1 -8,2 -4,6z"/>
    <path class="fil10" d="M202 67c4,1 4,-1 3,-5 -1,0 -2,-1 -3,-1l0 6z"/>
    <path class="fil10" d="M171 103l2 0c1,-2 1,-1 0,-3l-2 0 0 3z"/>
    <path class="fil10" d="M145 102c0,0 1,0 1,-1 0,-1 -1,-1 -1,-1l-2 0 0 2 2 0z"/>
   </g>
   <path class="fil11" d="M291 89c-4,4 -16,9 -24,12 -45,14 -116,14 -162,5 -15,-4 -45,-12 -46,-26 -1,-15 31,-23 45,-27 45,-9 118,-9 162,5 8,2 20,7 24,12l-3 5c-1,1 -3,1 -5,1l-4 0c-1,1 -1,0 -1,1l7 6c1,1 -1,8 -1,10l8 -4zm9 3c0,0 0,1 0,0l-2 -9c2,-1 3,-2 4,-3l3 -3c1,0 0,0 1,-1l-10 -1 -1 -2c-1,-1 -2,-5 -4,-6l-1 1c-4,-3 -4,-4 -12,-8 -53,-27 -180,-27 -233,-1 -8,3 -21,11 -19,22 2,16 35,26 53,30 53,12 135,12 187,-7 5,-2 10,-4 14,-6 4,-2 7,-4 10,-7 1,-1 1,-2 2,-3l8 4z"/>
   <path class="fil12" d="M300 92c1,0 0,-1 1,1l-1 -1 -8 -4c-1,1 -1,2 -2,3 -3,3 -6,5 -10,7 -4,2 -9,4 -14,6 -52,19 -134,19 -187,7 -18,-4 -51,-14 -53,-30 -2,-11 11,-19 19,-22 53,-26 180,-26 233,1 8,4 8,5 12,8l1 -1c2,1 3,5 4,6l1 2 10 1c-1,1 0,1 -1,1l-3 3c-1,1 -2,2 -4,3l2 9zm-153 -57c-37,1 -93,7 -125,25 -11,6 -23,18 -13,30 5,5 8,7 14,11 5,3 12,6 17,8 13,4 26,7 40,10 57,10 126,9 182,-5 19,-5 65,-20 48,-44 -11,-16 -52,-26 -70,-29 -30,-5 -62,-7 -93,-6z"/>
   <path class="fil13" d="M147 35c31,-1 63,1 93,6 18,3 59,13 70,29 17,24 -29,39 -48,44 -56,14 -125,15 -182,5 -14,-3 -27,-6 -40,-10 -5,-2 -12,-5 -17,-8 -6,-4 -9,-6 -14,-11 -10,-12 2,-24 13,-30 32,-18 88,-24 125,-25zm169 43l0 3c-1,3 -2,6 -3,9 -5,7 -14,11 -21,15 -10,5 -26,10 -37,12 -45,10 -86,11 -132,9 -6,-1 -20,-2 -27,-3 -25,-3 -45,-8 -68,-18 -4,-2 -11,-6 -15,-9 -5,-4 -9,-9 -9,-17l0 0c0,-3 2,-7 4,-9 0,-1 2,-2 2,-3 3,-3 7,-6 11,-8 12,-8 31,-14 45,-16 25,-6 44,-8 70,-9 2,-1 4,0 6,0l12 -1c37,0 65,2 101,10 17,4 59,16 61,35z"/>
   <path class="fil14" d="M177 94l0 -28 3 0 0 28c1,-1 1,-27 1,-28l-4 0c-1,3 0,19 0,25 0,0 0,1 0,2l0 1z"/>
   <path class="fil15" d="M160 100l1 4 -2 0 1 -4zm-2 7l1 -2 2 0c1,2 1,2 2,2l-2 -6c0,-2 0,-2 -1,-2l-2 6c0,2 0,2 0,2z"/>
   <path class="fil16" d="M131 107l1 0c0,-2 0,-6 -1,-8 -1,1 0,6 0,8z"/>
   <path class="fil17" d="M200 69l-1 -9 1 0 5 0c0,0 0,-1 0,0l-6 -1 0 9c0,2 0,1 1,1z"/>
   <path class="fil18" d="M145 102l-2 0 0 -2 2 0c-1,-1 -1,-1 -2,0l0 2c1,1 0,1 1,1l1 -1z"/>
   <path class="fil19" d="M300 92l1 1c-1,-2 0,-1 -1,-1 0,1 0,0 0,0z"/>
   <path class="fil20" d="M156 100c-1,0 0,0 -2,0l0 -1c0,0 0,-1 0,1l2 0z"/>
  </g>
 </g>
</svg>
